<svg version="1.1" id="Layer_1" xmlns="http://www.w3.org/2000/svg" xmlns:xlink="http://www.w3.org/1999/xlink" x="0px" y="0px"
	 width="100%" viewBox="0 0 1920 1080" enable-background="new 0 0 1920 1080" xml:space="preserve">
<path fill="#FFFFFF" opacity="1.000000" stroke="none" 
	d="
M1812.000000,1081.000000 
	C1208.000122,1081.000000 604.500244,1081.000000 1.000243,1081.000000 
	C1.000162,721.000183 1.000162,361.000336 1.000081,1.000388 
	C640.999695,1.000259 1280.999390,1.000259 1920.999268,1.000129 
	C1920.999512,360.999634 1920.999512,720.999268 1920.999756,1080.999512 
	C1884.833374,1081.000000 1848.666626,1081.000000 1812.000000,1081.000000 
M1215.500854,472.128967 
	C1211.669067,472.130188 1207.836548,472.087189 1204.005493,472.140167 
	C1185.581299,472.394867 1176.834473,480.949097 1176.159180,499.343933 
	C1176.116455,500.508881 1176.111694,501.675720 1176.111694,502.841705 
	C1176.109009,537.827515 1176.106323,572.813354 1176.118652,607.799194 
	C1176.119263,609.409363 1176.259644,611.019531 1176.335083,612.633240 
	C1186.459961,612.633240 1196.180298,612.633240 1206.381592,612.633240 
	C1206.381592,597.182007 1206.381592,582.096985 1206.381592,567.056519 
	C1213.765991,567.056519 1220.653442,567.056519 1228.043213,567.056519 
	C1228.043213,582.530762 1228.043213,597.598389 1228.043213,612.609253 
	C1238.277832,612.609253 1247.991455,612.609253 1257.931885,612.609253 
	C1257.931885,610.395874 1257.932007,608.576538 1257.932007,606.757141 
	C1257.932007,572.770935 1257.934937,538.784668 1257.925415,504.798462 
	C1257.924683,502.300507 1257.916626,499.797424 1257.766846,497.305450 
	C1256.817139,481.499329 1248.795776,473.306793 1232.987427,472.291962 
	C1227.510742,471.940369 1221.997070,472.166718 1215.500854,472.128967 
M788.642639,612.002075 
	C804.974487,610.377686 812.476074,602.486877 812.950378,586.104187 
	C813.181702,578.114258 813.071411,570.113464 813.063477,562.117615 
	C813.040833,539.462097 813.192505,516.803833 812.876465,494.152191 
	C812.687866,480.638977 805.450745,471.029846 793.528625,470.190155 
	C779.306335,469.188385 764.921570,469.374298 750.676270,470.215363 
	C741.340149,470.766541 735.262573,477.066956 733.058167,486.179382 
	C731.897644,490.976685 731.474670,496.052185 731.445129,501.006439 
	C731.292236,526.660217 731.355347,552.315430 731.394531,577.970032 
	C731.400085,581.628845 731.541809,585.300171 731.867859,588.943542 
	C733.132629,603.077454 740.580994,610.914734 754.796082,611.802368 
	C765.745972,612.486084 776.767456,612.023132 788.642639,612.002075 
M839.126160,568.499939 
	C839.413818,576.308350 839.141785,584.187866 840.122864,591.908203 
	C841.527222,602.959656 847.241821,609.419434 858.167603,610.892029 
	C868.487183,612.282837 879.055176,612.055786 889.516541,612.122742 
	C912.694641,612.271057 920.892395,604.052856 920.922485,581.003296 
	C920.951599,558.689575 920.940002,536.375854 920.922180,514.062134 
	C920.916992,507.568939 921.081482,501.062042 920.729309,494.585327 
	C919.855530,478.518341 912.212158,470.375244 896.259094,469.426971 
	C885.476746,468.786041 874.595642,468.790894 863.812378,469.423309 
	C847.989868,470.351288 840.578857,478.201202 839.335876,494.071014 
	C839.154114,496.391388 839.136353,498.728790 839.134888,501.058380 
	C839.120605,523.205566 839.126343,545.352783 839.126160,568.499939 
M996.373718,598.473206 
	C996.373718,602.234985 996.373718,605.996826 996.373718,609.829346 
	C1006.721191,609.829346 1016.347473,609.829346 1026.538818,609.829346 
	C1026.538818,607.874207 1026.538818,606.080505 1026.538818,604.286865 
	C1026.538818,572.643005 1026.557861,540.999146 1026.520752,509.355316 
	C1026.514404,503.864105 1026.471558,498.359497 1026.098633,492.884735 
	C1025.130737,478.673737 1017.892761,470.686737 1003.650024,469.663940 
	C992.392700,468.855591 980.984985,468.835236 969.728577,469.642853 
	C954.958008,470.702606 947.171082,479.224915 947.048462,494.189392 
	C946.737122,532.158325 946.846741,570.130798 946.810059,608.101868 
	C946.809448,608.687866 947.093811,609.274109 947.173279,609.581726 
	C957.241516,609.581726 966.961853,609.581726 976.851379,609.581726 
	C976.851379,573.692932 976.885498,538.227051 976.833557,502.761261 
	C976.814331,489.634369 976.475525,490.836151 988.731812,490.853210 
	C995.840027,490.863098 996.365784,491.370300 996.368347,498.553772 
	C996.380127,531.530029 996.373840,564.506226 996.373718,598.473206 
M527.327271,477.239960 
	C523.772217,472.397522 518.886902,469.273254 513.038452,469.071625 
	C500.584137,468.642242 488.065002,468.283112 475.649963,469.088989 
	C465.483826,469.748901 458.002930,476.331299 457.200623,486.414001 
	C455.978546,501.772308 455.569489,517.363647 456.802734,532.696228 
	C457.807312,545.185913 465.766510,551.174011 478.360992,552.072876 
	C485.493744,552.581970 492.673553,552.568420 499.831146,552.539062 
	C503.892120,552.522400 505.618988,554.339050 505.606079,558.243530 
	C505.579010,566.408997 505.618439,574.574768 505.582977,582.740112 
	C505.567474,586.312195 504.045929,588.363892 500.114502,588.177368 
	C496.789154,588.019592 493.440735,587.987671 490.119720,588.186707 
	C485.726593,588.449951 484.093079,586.269531 484.130463,582.202454 
	C484.171326,577.759460 484.139771,573.315796 484.139771,568.653015 
	C474.460266,568.653015 465.370575,568.653015 455.435638,568.653015 
	C455.808105,576.337585 455.669434,583.829285 456.644684,591.173035 
	C458.110352,602.209229 464.790039,609.414978 475.894348,610.229431 
	C488.458435,611.150940 501.233856,611.431213 513.743835,610.210999 
	C525.845032,609.030823 532.020386,603.001404 533.018005,590.851196 
	C534.265381,575.658875 534.325439,560.212219 533.094910,545.021423 
	C532.061523,532.265442 523.238708,525.613037 510.282867,525.016968 
	C503.962463,524.726196 497.623474,524.837769 491.292908,524.769775 
	C485.357849,524.706055 484.210632,523.623474 484.145844,517.843262 
	C484.099152,513.677673 484.135590,509.511139 484.135559,505.345001 
	C484.135376,490.857208 484.132172,490.935638 498.462524,491.538879 
	C502.530792,491.710175 504.148285,493.610535 504.077637,497.462433 
	C504.023468,500.415253 504.066833,503.369873 504.066833,506.547119 
	C513.800842,506.547119 523.021179,506.547119 532.657227,506.547119 
	C532.758301,496.449463 533.451477,486.628693 527.327271,477.239960 
M1081.467651,550.039612 
	C1085.920044,552.033997 1090.216797,555.111023 1094.859985,555.778564 
	C1102.551392,556.884460 1110.465088,556.542603 1118.286743,556.602234 
	C1122.058105,556.630981 1123.887817,558.296936 1123.902832,561.970947 
	C1123.936646,570.302063 1123.961914,578.633972 1123.887695,586.964600 
	C1123.858032,590.283020 1122.333862,592.275757 1118.665039,592.146301 
	C1115.503174,592.034790 1112.333862,592.148010 1109.168091,592.122192 
	C1103.461792,592.075623 1102.663696,591.268799 1102.600586,585.359558 
	C1102.555420,581.116882 1102.591675,576.873291 1102.591675,572.681519 
	C1092.526978,572.681519 1083.428467,572.681519 1074.214478,572.681519 
	C1074.214478,579.480469 1073.702881,586.006104 1074.321899,592.422729 
	C1075.573120,605.392700 1081.738525,612.986877 1094.293823,614.256592 
	C1106.795288,615.520935 1119.638428,615.560547 1132.125244,614.216858 
	C1145.066162,612.824280 1151.492676,604.621887 1151.953735,591.314697 
	C1152.403076,578.346802 1152.369141,565.338989 1151.929688,552.369568 
	C1151.448975,538.187195 1142.666382,529.697693 1128.470215,529.016235 
	C1121.985352,528.704956 1115.477173,528.590820 1108.988403,528.747559 
	C1104.196289,528.863281 1102.342407,526.835083 1102.552124,522.176819 
	C1102.746704,517.853333 1102.591431,513.514099 1102.591309,509.181793 
	C1102.591064,495.108063 1102.588623,495.199738 1116.481079,495.590088 
	C1120.505127,495.703125 1122.304932,497.371490 1122.241455,501.313446 
	C1122.191772,504.403290 1122.231567,507.494568 1122.231567,510.448242 
	C1132.278931,510.448242 1141.505493,510.448242 1150.740967,510.448242 
	C1150.740967,505.367981 1151.052002,500.686462 1150.683228,496.059113 
	C1149.533081,481.626373 1142.114868,473.503754 1127.759155,472.575378 
	C1116.504761,471.847595 1105.092285,472.085419 1093.851318,473.060883 
	C1083.470825,473.961700 1076.050537,480.567352 1075.284668,490.922394 
	C1074.148926,506.278168 1074.487671,521.792664 1075.148071,537.198914 
	C1075.327881,541.391846 1078.913574,545.438782 1081.467651,550.039612 
M1326.798462,554.055725 
	C1325.771729,559.907715 1324.745117,565.759766 1323.718384,571.611755 
	C1322.601196,570.367493 1322.187988,569.027405 1321.957886,567.656555 
	C1316.945068,537.801880 1311.983398,507.938507 1306.859009,478.103058 
	C1306.623779,476.733582 1304.995483,474.568329 1303.958374,474.534424 
	C1295.184082,474.247742 1286.396362,474.370758 1277.376831,474.370758 
	C1277.469727,475.565491 1277.450439,476.213593 1277.578125,476.831299 
	C1286.741211,521.124268 1295.942993,565.409241 1305.025024,609.718811 
	C1305.595459,612.502197 1306.847168,613.091187 1309.405029,613.054138 
	C1318.231689,612.926025 1327.066895,612.823547 1335.887085,613.093933 
	C1339.415649,613.202148 1340.648682,612.184204 1341.366455,608.644043 
	C1348.437500,573.768433 1355.740845,538.939941 1362.973145,504.097046 
	C1364.991699,494.372253 1366.993408,484.643951 1369.049683,474.690308 
	C1359.114258,474.690308 1349.717896,474.690308 1340.022705,474.690308 
	C1335.627563,501.040680 1331.278198,527.117188 1326.798462,554.055725 
M1422.625610,588.128906 
	C1421.190552,588.027649 1419.755493,587.926331 1418.342041,587.826538 
	C1418.342041,576.727234 1418.342041,566.000916 1418.342041,554.738403 
	C1428.748169,554.738403 1438.812866,554.738403 1448.743042,554.738403 
	C1448.743042,546.749451 1448.743042,539.306824 1448.743042,531.238892 
	C1438.433350,531.238892 1428.383667,531.238892 1418.260254,531.238892 
	C1418.260254,520.183716 1418.260254,509.762665 1418.260254,498.782898 
	C1429.249756,498.782898 1439.983398,498.782898 1450.864014,498.782898 
	C1450.864014,490.457794 1450.864014,482.695587 1450.864014,474.658325 
	C1429.880737,474.658325 1409.143677,474.658325 1388.293701,474.658325 
	C1388.293701,520.855408 1388.293701,566.751648 1388.293701,612.668091 
	C1409.337646,612.668091 1430.068726,612.668091 1450.795410,612.668091 
	C1450.795410,604.413757 1450.795410,596.499451 1450.795410,588.129089 
	C1441.526855,588.129089 1432.565308,588.129089 1422.625610,588.128906 
M650.370361,516.499939 
	C650.370361,547.586426 650.370361,578.672913 650.370361,609.743164 
	C671.716309,609.743164 692.312195,609.743164 712.990112,609.743164 
	C712.990112,601.378357 712.990112,593.279175 712.990112,584.628662 
	C702.198853,584.628662 691.637573,584.628662 680.438538,584.628662 
	C680.438538,546.524231 680.438538,508.967102 680.438538,471.396790 
	C670.168518,471.396790 660.560181,471.396790 650.370728,471.396790 
	C650.370728,486.260376 650.370728,500.880127 650.370361,516.499939 
M552.037842,489.735931 
	C546.934937,509.639069 559.132507,524.269775 578.171997,521.818726 
	C580.264038,526.810242 581.708069,532.020752 584.440491,536.433411 
	C591.706482,548.167175 599.537720,559.550537 607.125977,571.085205 
	C616.889343,585.926147 626.635071,600.778687 636.703003,616.105164 
	C641.250732,608.286804 642.083679,600.249695 639.417542,592.591370 
	C636.836792,585.178223 633.229980,577.843750 628.696045,571.452026 
	C621.233398,560.931396 612.659546,551.198975 605.124817,541.842896 
	C607.930054,534.861755 610.556458,528.325745 613.229065,521.674500 
	C626.724670,523.881958 633.953125,520.619263 638.109131,508.948425 
	C639.784851,504.242706 640.340942,498.858978 640.149048,493.831787 
	C639.849060,485.973541 634.771851,480.456696 627.429199,478.406769 
	C619.959778,476.321442 612.226501,478.533722 608.329895,485.555695 
	C605.369141,490.891205 603.767334,497.194946 602.634460,503.268097 
	C601.576660,508.938751 602.422913,514.952759 601.495544,520.663696 
	C600.879578,524.456543 598.617859,527.982117 596.852966,532.200562 
	C592.118042,528.401062 590.077454,524.883362 589.923279,520.239624 
	C589.713379,513.919128 589.471436,507.594727 589.011475,501.288879 
	C588.528687,494.671234 586.805603,488.170502 581.794189,483.712677 
	C578.661865,480.926331 574.220581,478.588013 570.145874,478.162231 
	C565.757080,477.703644 562.990295,477.008240 561.861389,472.473877 
	C561.612183,471.473114 560.002747,469.987823 559.266052,470.118225 
	C558.061646,470.331329 556.723206,471.490265 556.063049,472.615051 
	C555.349243,473.831299 554.813660,475.597656 555.132996,476.894318 
	C556.264893,481.490387 554.552124,485.240845 552.037842,489.735931 
M579.833679,550.308533 
	C574.772461,556.477722 569.383484,562.412170 564.746704,568.885376 
	C560.516846,574.790527 556.355835,580.959106 553.509338,587.588989 
	C549.598511,596.697998 549.922485,606.189026 554.821106,616.303101 
	C568.249939,595.859497 581.151917,576.217896 594.043701,556.591919 
	C591.141663,552.216919 588.428406,548.126465 585.499084,543.710205 
	C583.524475,545.998108 581.901672,547.878357 579.833679,550.308533 
z"/>
<path fill="#747474" opacity="1.000000" stroke="none" 
	d="
M1216.000488,472.129028 
	C1221.997070,472.166718 1227.510742,471.940369 1232.987427,472.291962 
	C1248.795776,473.306793 1256.817139,481.499329 1257.766846,497.305450 
	C1257.916626,499.797424 1257.924683,502.300507 1257.925415,504.798462 
	C1257.934937,538.784668 1257.932007,572.770935 1257.932007,606.757141 
	C1257.932007,608.576538 1257.931885,610.395874 1257.931885,612.609253 
	C1247.991455,612.609253 1238.277832,612.609253 1228.043213,612.609253 
	C1228.043213,597.598389 1228.043213,582.530762 1228.043213,567.056519 
	C1220.653442,567.056519 1213.765991,567.056519 1206.381592,567.056519 
	C1206.381592,582.096985 1206.381592,597.182007 1206.381592,612.633240 
	C1196.180298,612.633240 1186.459961,612.633240 1176.335083,612.633240 
	C1176.259644,611.019531 1176.119263,609.409363 1176.118652,607.799194 
	C1176.106323,572.813354 1176.109009,537.827515 1176.111694,502.841705 
	C1176.111694,501.675720 1176.116455,500.508881 1176.159180,499.343933 
	C1176.834473,480.949097 1185.581299,472.394867 1204.005493,472.140167 
	C1207.836548,472.087189 1211.669067,472.130188 1216.000488,472.129028 
M1214.537354,543.370361 
	C1218.813599,543.370361 1223.089844,543.370361 1227.828979,543.370361 
	C1227.828979,527.532471 1227.970459,512.271790 1227.606567,497.023071 
	C1227.570801,495.524597 1224.637085,493.365234 1222.684082,492.821625 
	C1220.058594,492.090912 1217.078735,492.626221 1214.250977,492.631439 
	C1206.968750,492.644867 1206.142578,493.438385 1206.121460,500.545227 
	C1206.102295,507.032379 1206.117432,513.519592 1206.117432,520.006775 
	C1206.117432,527.613098 1206.117432,535.219421 1206.117432,543.370789 
	C1208.988037,543.370789 1211.272949,543.370789 1214.537354,543.370361 
z"/>
<path fill="#6019EB" opacity="1.000000" stroke="none" 
	d="
M788.199890,612.036011 
	C776.767456,612.023132 765.745972,612.486084 754.796082,611.802368 
	C740.580994,610.914734 733.132629,603.077454 731.867859,588.943542 
	C731.541809,585.300171 731.400085,581.628845 731.394531,577.970032 
	C731.355347,552.315430 731.292236,526.660217 731.445129,501.006439 
	C731.474670,496.052185 731.897644,490.976685 733.058167,486.179382 
	C735.262573,477.066956 741.340149,470.766541 750.676270,470.215363 
	C764.921570,469.374298 779.306335,469.188385 793.528625,470.190155 
	C805.450745,471.029846 812.687866,480.638977 812.876465,494.152191 
	C813.192505,516.803833 813.040833,539.462097 813.063477,562.117615 
	C813.071411,570.113464 813.181702,578.114258 812.950378,586.104187 
	C812.476074,602.486877 804.974487,610.377686 788.199890,612.036011 
M783.062317,497.718018 
	C783.015320,489.992737 782.488831,489.457916 774.897888,489.439758 
	C773.068115,489.435364 771.238403,489.433014 769.408630,489.440704 
	C762.223206,489.470947 761.405090,490.261139 761.401245,497.471741 
	C761.387024,524.086487 761.422119,550.701294 761.385498,577.315979 
	C761.363647,593.187439 760.578857,591.517395 775.671448,591.549133 
	C782.285156,591.562988 783.055664,590.742615 783.058044,584.004639 
	C783.068054,555.560120 783.062378,527.115601 783.062317,497.718018 
z"/>
<path fill="#5F19EB" opacity="1.000000" stroke="none" 
	d="
M839.126221,568.000000 
	C839.126343,545.352783 839.120605,523.205566 839.134888,501.058380 
	C839.136353,498.728790 839.154114,496.391388 839.335876,494.071014 
	C840.578857,478.201202 847.989868,470.351288 863.812378,469.423309 
	C874.595642,468.790894 885.476746,468.786041 896.259094,469.426971 
	C912.212158,470.375244 919.855530,478.518341 920.729309,494.585327 
	C921.081482,501.062042 920.916992,507.568939 920.922180,514.062134 
	C920.940002,536.375854 920.951599,558.689575 920.922485,581.003296 
	C920.892395,604.052856 912.694641,612.271057 889.516541,612.122742 
	C879.055176,612.055786 868.487183,612.282837 858.167603,610.892029 
	C847.241821,609.419434 841.527222,602.959656 840.122864,591.908203 
	C839.141785,584.187866 839.413818,576.308350 839.126221,568.000000 
M869.130798,538.500000 
	C869.130981,553.968567 869.201782,569.437683 869.087708,584.905396 
	C869.053955,589.484497 870.796143,591.777405 875.536804,591.583862 
	C878.691833,591.455017 881.857056,591.512756 885.016357,591.566895 
	C889.235352,591.639221 890.954651,589.545044 890.947937,585.414917 
	C890.898926,555.475891 890.898499,525.536621 890.948608,495.597534 
	C890.955566,491.472015 889.254578,489.361664 885.029724,489.434052 
	C882.036743,489.485352 879.041504,489.401398 876.048340,489.446777 
	C870.244446,489.534760 869.153992,490.632080 869.140625,496.583191 
	C869.110107,510.222046 869.130859,523.861023 869.130798,538.500000 
z"/>
<path fill="#6019EB" opacity="1.000000" stroke="none" 
	d="
M996.373840,597.977844 
	C996.373840,564.506226 996.380127,531.530029 996.368347,498.553772 
	C996.365784,491.370300 995.840027,490.863098 988.731812,490.853210 
	C976.475525,490.836151 976.814331,489.634369 976.833557,502.761261 
	C976.885498,538.227051 976.851379,573.692932 976.851379,609.581726 
	C966.961853,609.581726 957.241516,609.581726 947.173279,609.581726 
	C947.093811,609.274109 946.809448,608.687866 946.810059,608.101868 
	C946.846741,570.130798 946.737122,532.158325 947.048462,494.189392 
	C947.171082,479.224915 954.958008,470.702606 969.728577,469.642853 
	C980.984985,468.835236 992.392700,468.855591 1003.650024,469.663940 
	C1017.892761,470.686737 1025.130737,478.673737 1026.098633,492.884735 
	C1026.471558,498.359497 1026.514404,503.864105 1026.520752,509.355316 
	C1026.557861,540.999146 1026.538818,572.643005 1026.538818,604.286865 
	C1026.538818,606.080505 1026.538818,607.874207 1026.538818,609.829346 
	C1016.347473,609.829346 1006.721191,609.829346 996.373718,609.829346 
	C996.373718,605.996826 996.373718,602.234985 996.373840,597.977844 
z"/>
<path fill="#6019EB" opacity="1.000000" stroke="none" 
	d="
M527.557495,477.521545 
	C533.451477,486.628693 532.758301,496.449463 532.657227,506.547119 
	C523.021179,506.547119 513.800842,506.547119 504.066833,506.547119 
	C504.066833,503.369873 504.023468,500.415253 504.077637,497.462433 
	C504.148285,493.610535 502.530792,491.710175 498.462524,491.538879 
	C484.132172,490.935638 484.135376,490.857208 484.135559,505.345001 
	C484.135590,509.511139 484.099152,513.677673 484.145844,517.843262 
	C484.210632,523.623474 485.357849,524.706055 491.292908,524.769775 
	C497.623474,524.837769 503.962463,524.726196 510.282867,525.016968 
	C523.238708,525.613037 532.061523,532.265442 533.094910,545.021423 
	C534.325439,560.212219 534.265381,575.658875 533.018005,590.851196 
	C532.020386,603.001404 525.845032,609.030823 513.743835,610.210999 
	C501.233856,611.431213 488.458435,611.150940 475.894348,610.229431 
	C464.790039,609.414978 458.110352,602.209229 456.644684,591.173035 
	C455.669434,583.829285 455.808105,576.337585 455.435638,568.653015 
	C465.370575,568.653015 474.460266,568.653015 484.139771,568.653015 
	C484.139771,573.315796 484.171326,577.759460 484.130463,582.202454 
	C484.093079,586.269531 485.726593,588.449951 490.119720,588.186707 
	C493.440735,587.987671 496.789154,588.019592 500.114502,588.177368 
	C504.045929,588.363892 505.567474,586.312195 505.582977,582.740112 
	C505.618439,574.574768 505.579010,566.408997 505.606079,558.243530 
	C505.618988,554.339050 503.892120,552.522400 499.831146,552.539062 
	C492.673553,552.568420 485.493744,552.581970 478.360992,552.072876 
	C465.766510,551.174011 457.807312,545.185913 456.802734,532.696228 
	C455.569489,517.363647 455.978546,501.772308 457.200623,486.414001 
	C458.002930,476.331299 465.483826,469.748901 475.649963,469.088989 
	C488.065002,468.283112 500.584137,468.642242 513.038452,469.071625 
	C518.886902,469.273254 523.772217,472.397522 527.557495,477.521545 
z"/>
<path fill="#757575" opacity="1.000000" stroke="none" 
	d="
M1081.201904,549.796143 
	C1078.913574,545.438782 1075.327881,541.391846 1075.148071,537.198914 
	C1074.487671,521.792664 1074.148926,506.278168 1075.284668,490.922394 
	C1076.050537,480.567352 1083.470825,473.961700 1093.851318,473.060883 
	C1105.092285,472.085419 1116.504761,471.847595 1127.759155,472.575378 
	C1142.114868,473.503754 1149.533081,481.626373 1150.683228,496.059113 
	C1151.052002,500.686462 1150.740967,505.367981 1150.740967,510.448242 
	C1141.505493,510.448242 1132.278931,510.448242 1122.231567,510.448242 
	C1122.231567,507.494568 1122.191772,504.403290 1122.241455,501.313446 
	C1122.304932,497.371490 1120.505127,495.703125 1116.481079,495.590088 
	C1102.588623,495.199738 1102.591064,495.108063 1102.591309,509.181793 
	C1102.591431,513.514099 1102.746704,517.853333 1102.552124,522.176819 
	C1102.342407,526.835083 1104.196289,528.863281 1108.988403,528.747559 
	C1115.477173,528.590820 1121.985352,528.704956 1128.470215,529.016235 
	C1142.666382,529.697693 1151.448975,538.187195 1151.929688,552.369568 
	C1152.369141,565.338989 1152.403076,578.346802 1151.953735,591.314697 
	C1151.492676,604.621887 1145.066162,612.824280 1132.125244,614.216858 
	C1119.638428,615.560547 1106.795288,615.520935 1094.293823,614.256592 
	C1081.738525,612.986877 1075.573120,605.392700 1074.321899,592.422729 
	C1073.702881,586.006104 1074.214478,579.480469 1074.214478,572.681519 
	C1083.428467,572.681519 1092.526978,572.681519 1102.591675,572.681519 
	C1102.591675,576.873291 1102.555420,581.116882 1102.600586,585.359558 
	C1102.663696,591.268799 1103.461792,592.075623 1109.168091,592.122192 
	C1112.333862,592.148010 1115.503174,592.034790 1118.665039,592.146301 
	C1122.333862,592.275757 1123.858032,590.283020 1123.887695,586.964600 
	C1123.961914,578.633972 1123.936646,570.302063 1123.902832,561.970947 
	C1123.887817,558.296936 1122.058105,556.630981 1118.286743,556.602234 
	C1110.465088,556.542603 1102.551392,556.884460 1094.859985,555.778564 
	C1090.216797,555.111023 1085.920044,552.033997 1081.201904,549.796143 
z"/>
<path fill="#757575" opacity="1.000000" stroke="none" 
	d="
M1326.863647,553.624756 
	C1331.278198,527.117188 1335.627563,501.040680 1340.022705,474.690308 
	C1349.717896,474.690308 1359.114258,474.690308 1369.049683,474.690308 
	C1366.993408,484.643951 1364.991699,494.372253 1362.973145,504.097046 
	C1355.740845,538.939941 1348.437500,573.768433 1341.366455,608.644043 
	C1340.648682,612.184204 1339.415649,613.202148 1335.887085,613.093933 
	C1327.066895,612.823547 1318.231689,612.926025 1309.405029,613.054138 
	C1306.847168,613.091187 1305.595459,612.502197 1305.025024,609.718811 
	C1295.942993,565.409241 1286.741211,521.124268 1277.578125,476.831299 
	C1277.450439,476.213593 1277.469727,475.565491 1277.376831,474.370758 
	C1286.396362,474.370758 1295.184082,474.247742 1303.958374,474.534424 
	C1304.995483,474.568329 1306.623779,476.733582 1306.859009,478.103058 
	C1311.983398,507.938507 1316.945068,537.801880 1321.957886,567.656555 
	C1322.187988,569.027405 1322.601196,570.367493 1323.718384,571.611755 
	C1324.745117,565.759766 1325.771729,559.907715 1326.863647,553.624756 
z"/>
<path fill="#747474" opacity="1.000000" stroke="none" 
	d="
M1423.114624,588.129028 
	C1432.565308,588.129089 1441.526855,588.129089 1450.795410,588.129089 
	C1450.795410,596.499451 1450.795410,604.413757 1450.795410,612.668091 
	C1430.068726,612.668091 1409.337646,612.668091 1388.293701,612.668091 
	C1388.293701,566.751648 1388.293701,520.855408 1388.293701,474.658325 
	C1409.143677,474.658325 1429.880737,474.658325 1450.864014,474.658325 
	C1450.864014,482.695587 1450.864014,490.457794 1450.864014,498.782898 
	C1439.983398,498.782898 1429.249756,498.782898 1418.260254,498.782898 
	C1418.260254,509.762665 1418.260254,520.183716 1418.260254,531.238892 
	C1428.383667,531.238892 1438.433350,531.238892 1448.743042,531.238892 
	C1448.743042,539.306824 1448.743042,546.749451 1448.743042,554.738403 
	C1438.812866,554.738403 1428.748169,554.738403 1418.342041,554.738403 
	C1418.342041,566.000916 1418.342041,576.727234 1418.342041,587.826538 
	C1419.755493,587.926331 1421.190552,588.027649 1423.114624,588.129028 
z"/>
<path fill="#601AEB" opacity="1.000000" stroke="none" 
	d="
M650.370544,515.999878 
	C650.370728,500.880127 650.370728,486.260376 650.370728,471.396790 
	C660.560181,471.396790 670.168518,471.396790 680.438538,471.396790 
	C680.438538,508.967102 680.438538,546.524231 680.438538,584.628662 
	C691.637573,584.628662 702.198853,584.628662 712.990112,584.628662 
	C712.990112,593.279175 712.990112,601.378357 712.990112,609.743164 
	C692.312195,609.743164 671.716309,609.743164 650.370361,609.743164 
	C650.370361,578.672913 650.370361,547.586426 650.370544,515.999878 
z"/>
<path fill="#621CEB" opacity="1.000000" stroke="none" 
	d="
M552.152527,489.333618 
	C554.552124,485.240845 556.264893,481.490387 555.132996,476.894318 
	C554.813660,475.597656 555.349243,473.831299 556.063049,472.615051 
	C556.723206,471.490265 558.061646,470.331329 559.266052,470.118225 
	C560.002747,469.987823 561.612183,471.473114 561.861389,472.473877 
	C562.990295,477.008240 565.757080,477.703644 570.145874,478.162231 
	C574.220581,478.588013 578.661865,480.926331 581.794189,483.712677 
	C586.805603,488.170502 588.528687,494.671234 589.011475,501.288879 
	C589.471436,507.594727 589.713379,513.919128 589.923279,520.239624 
	C590.077454,524.883362 592.118042,528.401062 596.852966,532.200562 
	C598.617859,527.982117 600.879578,524.456543 601.495544,520.663696 
	C602.422913,514.952759 601.576660,508.938751 602.634460,503.268097 
	C603.767334,497.194946 605.369141,490.891205 608.329895,485.555695 
	C612.226501,478.533722 619.959778,476.321442 627.429199,478.406769 
	C634.771851,480.456696 639.849060,485.973541 640.149048,493.831787 
	C640.340942,498.858978 639.784851,504.242706 638.109131,508.948425 
	C633.953125,520.619263 626.724670,523.881958 613.229065,521.674500 
	C610.556458,528.325745 607.930054,534.861755 605.124817,541.842896 
	C612.659546,551.198975 621.233398,560.931396 628.696045,571.452026 
	C633.229980,577.843750 636.836792,585.178223 639.417542,592.591370 
	C642.083679,600.249695 641.250732,608.286804 636.703003,616.105164 
	C626.635071,600.778687 616.889343,585.926147 607.125977,571.085205 
	C599.537720,559.550537 591.706482,548.167175 584.440491,536.433411 
	C581.708069,532.020752 580.264038,526.810242 578.171997,521.818726 
	C559.132507,524.269775 546.934937,509.639069 552.152527,489.333618 
M627.365479,487.855133 
	C623.834473,485.750916 619.964661,485.818573 618.440491,489.617737 
	C616.079102,495.503387 614.618591,501.821503 613.504089,508.085785 
	C613.229614,509.628571 615.399841,512.380310 617.121216,513.269592 
	C618.611328,514.039307 621.511353,513.608704 623.000977,512.574707 
	C628.273804,508.914673 631.071472,494.233337 627.365479,487.855133 
M578.064026,508.973022 
	C576.780334,503.018280 575.830261,496.962952 574.078308,491.149323 
	C573.141724,488.041443 570.499329,485.807709 566.664246,486.856415 
	C562.969666,487.866638 561.475647,490.856720 562.085022,494.170258 
	C563.038086,499.352600 564.260254,504.609619 566.310242,509.434875 
	C568.919861,515.577454 573.971802,515.530640 578.064026,508.973022 
z"/>
<path fill="#601AEB" opacity="1.000000" stroke="none" 
	d="
M580.056274,550.033569 
	C581.901672,547.878357 583.524475,545.998108 585.499084,543.710205 
	C588.428406,548.126465 591.141663,552.216919 594.043701,556.591919 
	C581.151917,576.217896 568.249939,595.859497 554.821106,616.303101 
	C549.922485,606.189026 549.598511,596.697998 553.509338,587.588989 
	C556.355835,580.959106 560.516846,574.790527 564.746704,568.885376 
	C569.383484,562.412170 574.772461,556.477722 580.056274,550.033569 
z"/>
<path fill="#FCFAFF" opacity="1.000000" stroke="none" 
	d="
M1214.047607,543.370605 
	C1211.272949,543.370789 1208.988037,543.370789 1206.117432,543.370789 
	C1206.117432,535.219421 1206.117432,527.613098 1206.117432,520.006775 
	C1206.117432,513.519592 1206.102295,507.032379 1206.121460,500.545227 
	C1206.142578,493.438385 1206.968750,492.644867 1214.250977,492.631439 
	C1217.078735,492.626221 1220.058594,492.090912 1222.684082,492.821625 
	C1224.637085,493.365234 1227.570801,495.524597 1227.606567,497.023071 
	C1227.970459,512.271790 1227.828979,527.532471 1227.828979,543.370361 
	C1223.089844,543.370361 1218.813599,543.370361 1214.047607,543.370605 
z"/>
<path fill="#FCFAFF" opacity="1.000000" stroke="none" 
	d="
M783.062378,498.194580 
	C783.062378,527.115601 783.068054,555.560120 783.058044,584.004639 
	C783.055664,590.742615 782.285156,591.562988 775.671448,591.549133 
	C760.578857,591.517395 761.363647,593.187439 761.385498,577.315979 
	C761.422119,550.701294 761.387024,524.086487 761.401245,497.471741 
	C761.405090,490.261139 762.223206,489.470947 769.408630,489.440704 
	C771.238403,489.433014 773.068115,489.435364 774.897888,489.439758 
	C782.488831,489.457916 783.015320,489.992737 783.062378,498.194580 
z"/>
<path fill="#FCFAFF" opacity="1.000000" stroke="none" 
	d="
M869.130859,538.000000 
	C869.130859,523.861023 869.110107,510.222046 869.140625,496.583191 
	C869.153992,490.632080 870.244446,489.534760 876.048340,489.446777 
	C879.041504,489.401398 882.036743,489.485352 885.029724,489.434052 
	C889.254578,489.361664 890.955566,491.472015 890.948608,495.597534 
	C890.898499,525.536621 890.898926,555.475891 890.947937,585.414917 
	C890.954651,589.545044 889.235352,591.639221 885.016357,591.566895 
	C881.857056,591.512756 878.691833,591.455017 875.536804,591.583862 
	C870.796143,591.777405 869.053955,589.484497 869.087708,584.905396 
	C869.201782,569.437683 869.130981,553.968567 869.130859,538.000000 
z"/>
<path fill="#FCFAFF" opacity="1.000000" stroke="none" 
	d="
M627.676147,488.123016 
	C631.071472,494.233337 628.273804,508.914673 623.000977,512.574707 
	C621.511353,513.608704 618.611328,514.039307 617.121216,513.269592 
	C615.399841,512.380310 613.229614,509.628571 613.504089,508.085785 
	C614.618591,501.821503 616.079102,495.503387 618.440491,489.617737 
	C619.964661,485.818573 623.834473,485.750916 627.676147,488.123016 
z"/>
<path fill="#FCFAFF" opacity="1.000000" stroke="none" 
	d="
M577.994751,509.389648 
	C573.971802,515.530640 568.919861,515.577454 566.310242,509.434875 
	C564.260254,504.609619 563.038086,499.352600 562.085022,494.170258 
	C561.475647,490.856720 562.969666,487.866638 566.664246,486.856415 
	C570.499329,485.807709 573.141724,488.041443 574.078308,491.149323 
	C575.830261,496.962952 576.780334,503.018280 577.994751,509.389648 
z"/>
</svg>